<svg width="151" height="53" viewBox="0 0 151 53" fill="none" xmlns="http://www.w3.org/2000/svg">
<path d="M13.0245 32.3957C11.3099 32.3957 9.77112 32.1209 8.40822 31.5713C7.04532 30.9998 5.86926 30.1975 4.88006 29.1643C3.91284 28.1091 3.16545 26.8452 2.63787 25.3723C2.1103 23.8995 1.84651 22.2619 1.84651 20.4593C1.84651 18.7447 2.1103 17.1949 2.63787 15.8101C3.18743 14.4252 3.9678 13.2381 4.97898 12.2489C5.99017 11.2597 7.19919 10.4904 8.60606 9.9408C10.0129 9.36926 11.5956 9.0725 13.3542 9.05051C14.0357 9.05051 14.7281 9.11646 15.4316 9.24835C16.157 9.38025 16.8494 9.5671 17.5089 9.8089C18.1683 10.0507 18.7619 10.3365 19.2894 10.6662C19.6631 10.908 19.9819 11.1608 20.2457 11.4246C20.5095 11.6664 20.6523 11.9192 20.6743 12.183C20.6963 12.3149 20.6743 12.4797 20.6084 12.6776C20.5424 12.8754 20.4545 13.0623 20.3446 13.2381C20.1687 13.5019 19.9709 13.6998 19.7511 13.8317C19.5532 13.9416 19.3554 13.9965 19.1575 13.9965C19.0696 13.9965 18.9157 13.9416 18.6959 13.8317C18.4761 13.7217 18.2013 13.5569 17.8716 13.3371C17.4979 13.1172 17.0582 12.9084 16.5526 12.7106C16.069 12.5127 15.5415 12.3588 14.9699 12.2489C14.3984 12.139 13.8049 12.0841 13.1894 12.0841C11.4967 12.0841 10.0239 12.4248 8.77092 13.1062C7.51793 13.7877 6.55071 14.7659 5.86926 16.0409C5.2098 17.3158 4.86907 18.8216 4.84709 20.5582C4.86907 22.3608 5.22079 23.9215 5.90224 25.2405C6.58369 26.5594 7.53992 27.5816 8.77092 28.307C10.0239 29.0324 11.4857 29.3951 13.1564 29.3951C13.7059 29.3951 14.2665 29.3511 14.838 29.2632C15.4096 29.1753 15.9701 29.0544 16.5197 28.9005C17.0912 28.7246 17.6188 28.5158 18.1024 28.274V21.9101H12.3321C12.0463 21.9101 11.7935 21.8772 11.5737 21.8112C11.3758 21.7453 11.2219 21.6134 11.112 21.4155C11.0241 21.2177 10.9801 20.9209 10.9801 20.5253C10.9801 20.1296 11.0351 19.8328 11.145 19.635C11.2549 19.4371 11.4088 19.3052 11.6066 19.2393C11.8045 19.1733 12.0463 19.1404 12.3321 19.1404H19.4873C19.9269 19.1404 20.2567 19.2173 20.4765 19.3712C20.6963 19.5251 20.8502 19.7229 20.9381 19.9647C21.048 20.1845 21.103 20.4593 21.103 20.789V28.9005C21.103 29.2522 20.9051 29.6259 20.5095 30.0216C20.1358 30.3953 19.5972 30.747 18.8938 31.0767C18.3882 31.3405 17.8166 31.5713 17.1791 31.7692C16.5636 31.967 15.9042 32.1209 15.2007 32.2308C14.4973 32.3407 13.7719 32.3957 13.0245 32.3957ZM32.4185 32.5276C31.3414 32.5276 30.3082 32.3187 29.319 31.9011C28.3518 31.4834 27.4835 30.9119 26.7141 30.1865C25.9447 29.4391 25.3402 28.5708 24.9006 27.5816C24.4609 26.5924 24.2411 25.5152 24.2411 24.3502C24.2411 23.2071 24.4499 22.1519 24.8676 21.1847C25.2853 20.1955 25.8678 19.3272 26.6152 18.5798C27.3626 17.8324 28.2199 17.2499 29.1871 16.8322C30.1763 16.3926 31.2315 16.1728 32.3526 16.1728C33.8693 16.1728 35.2322 16.5355 36.4413 17.2609C37.6723 17.9643 38.6505 18.9315 39.3759 20.1625C40.1013 21.3936 40.464 22.7784 40.464 24.3172C40.464 25.5262 40.2442 26.6363 39.8046 27.6475C39.3649 28.6367 38.7714 29.494 38.024 30.2194C37.2766 30.9449 36.4193 31.5164 35.4521 31.9341C34.4848 32.3297 33.4737 32.5276 32.4185 32.5276ZM32.3526 29.6589C33.2758 29.6589 34.1331 29.4281 34.9245 28.9664C35.7159 28.5048 36.3533 27.8673 36.837 27.054C37.3206 26.2406 37.5624 25.3174 37.5624 24.2842C37.5624 23.2511 37.3316 22.3388 36.8699 21.5474C36.4303 20.7561 35.8148 20.1406 35.0234 19.7009C34.2321 19.2613 33.3308 19.0415 32.3196 19.0415C31.3524 19.0415 30.4731 19.2723 29.6817 19.7339C28.9123 20.1955 28.2859 20.822 27.8022 21.6134C27.3406 22.4047 27.1098 23.306 27.1098 24.3172C27.1098 25.3723 27.3516 26.3066 27.8352 27.1199C28.3188 27.9113 28.9563 28.5378 29.7477 28.9994C30.561 29.4391 31.4293 29.6589 32.3526 29.6589ZM43.0772 32.3627C42.6375 32.3627 42.2858 32.2418 42.022 32C41.7582 31.7362 41.6263 31.3625 41.6263 30.8789C41.6263 30.725 41.6483 30.5712 41.6923 30.4173C41.7362 30.2634 41.7912 30.1425 41.8572 30.0546L53.9914 12.183H43.242C42.9343 12.183 42.6485 12.161 42.3847 12.117C42.1429 12.0511 41.9561 11.9192 41.8242 11.7214C41.6923 11.5235 41.6263 11.2268 41.6263 10.8311C41.6263 10.3695 41.6813 10.0397 41.7912 9.84188C41.9231 9.62205 42.099 9.47917 42.3188 9.41322C42.5606 9.34728 42.8354 9.3143 43.1431 9.3143H56.6622C57.1238 9.3143 57.4755 9.46818 57.7174 9.77593C57.9811 10.0617 58.113 10.3804 58.113 10.7322C58.113 10.974 58.0801 11.1938 58.0141 11.3916C57.9482 11.5675 57.8602 11.7214 57.7503 11.8533L45.814 29.494H57.1568C57.4646 29.494 57.7283 29.527 57.9482 29.5929C58.168 29.6589 58.3329 29.7908 58.4428 29.9886C58.5527 30.1865 58.6076 30.4832 58.6076 30.8789C58.6076 31.3185 58.5417 31.6483 58.4098 31.8681C58.2999 32.0659 58.135 32.1978 57.9152 32.2638C57.6954 32.3297 57.4206 32.3627 57.0909 32.3627H43.0772ZM68.9018 32.5276C67.8246 32.5276 66.7915 32.3187 65.8023 31.9011C64.8351 31.4834 63.9668 30.9119 63.1974 30.1865C62.428 29.4391 61.8235 28.5708 61.3838 27.5816C60.9442 26.5924 60.7244 25.5152 60.7244 24.3502C60.7244 23.2071 60.9332 22.1519 61.3509 21.1847C61.7685 20.1955 62.3511 19.3272 63.0985 18.5798C63.8459 17.8324 64.7032 17.2499 65.6704 16.8322C66.6596 16.3926 67.7147 16.1728 68.8358 16.1728C70.3526 16.1728 71.7155 16.5355 72.9245 17.2609C74.1555 17.9643 75.1337 18.9315 75.8592 20.1625C76.5846 21.3936 76.9473 22.7784 76.9473 24.3172C76.9473 25.5262 76.7275 26.6363 76.2878 27.6475C75.8482 28.6367 75.2547 29.494 74.5073 30.2194C73.7599 30.9449 72.9025 31.5164 71.9353 31.9341C70.9681 32.3297 69.9569 32.5276 68.9018 32.5276ZM68.8358 29.6589C69.7591 29.6589 70.6164 29.4281 71.4078 28.9664C72.1991 28.5048 72.8366 27.8673 73.3202 27.054C73.8038 26.2406 74.0456 25.3174 74.0456 24.2842C74.0456 23.2511 73.8148 22.3388 73.3532 21.5474C72.9135 20.7561 72.298 20.1406 71.5067 19.7009C70.7153 19.2613 69.814 19.0415 68.8029 19.0415C67.8356 19.0415 66.9563 19.2723 66.165 19.7339C65.3956 20.1955 64.7691 20.822 64.2855 21.6134C63.8239 22.4047 63.5931 23.306 63.5931 24.3172C63.5931 25.3723 63.8349 26.3066 64.3185 27.1199C64.8021 27.9113 65.4396 28.5378 66.2309 28.9994C67.0443 29.4391 67.9126 29.6589 68.8358 29.6589ZM81.3186 32.3297C80.9229 32.3297 80.6151 32.2528 80.3953 32.0989C80.1975 31.967 80.0656 31.7692 79.9996 31.5054C79.9337 31.2196 79.9007 30.9119 79.9007 30.5821V10.9959C79.9007 10.6662 79.9337 10.3804 79.9996 10.1386C80.0876 9.87485 80.2305 9.67701 80.4283 9.54512C80.6481 9.39124 80.9559 9.3143 81.3516 9.3143H90.5511C91.7821 9.3143 92.8593 9.58908 93.7825 10.1386C94.7278 10.6882 95.4642 11.4356 95.9917 12.3808C96.5193 13.3261 96.7721 14.3592 96.7501 15.4803C96.7721 16.0519 96.7062 16.6124 96.5523 17.162C96.3984 17.7115 96.1676 18.2281 95.8598 18.7117C95.5741 19.1733 95.2114 19.558 94.7717 19.8658C95.3652 20.2395 95.8708 20.7231 96.2885 21.3166C96.7062 21.9101 97.0249 22.5696 97.2447 23.295C97.4646 24.0204 97.5745 24.7788 97.5745 25.5702C97.5525 26.5154 97.3766 27.4057 97.0469 28.241C96.7172 29.0544 96.2445 29.7688 95.629 30.3843C95.0135 30.9998 94.2991 31.4834 93.4858 31.8351C92.6724 32.1649 91.8041 32.3297 90.8809 32.3297H81.3186ZM82.8683 29.494H90.5511C91.4084 29.494 92.1448 29.3292 92.7603 28.9994C93.3759 28.6697 93.8485 28.1861 94.1782 27.5486C94.5079 26.9111 94.6728 26.1307 94.6728 25.2075C94.6728 24.4161 94.5629 23.7786 94.3431 23.295C94.1233 22.8114 93.8265 22.4487 93.4528 22.2069C93.0791 21.9431 92.6724 21.7563 92.2328 21.6464C91.8151 21.5364 91.3974 21.4815 90.9798 21.4815C90.5841 21.4595 90.2214 21.4485 89.8917 21.4485H87.8803C87.4406 21.4485 87.1219 21.3386 86.9241 21.1188C86.7262 20.899 86.6273 20.5472 86.6273 20.0636C86.6273 19.602 86.7262 19.2723 86.9241 19.0744C87.1439 18.8766 87.4736 18.7777 87.9133 18.7777H89.9246C90.2764 18.7777 90.672 18.7667 91.1117 18.7447C91.5513 18.7227 91.98 18.6348 92.3976 18.4809C92.8373 18.327 93.189 18.0413 93.4528 17.6236C93.7386 17.184 93.8814 16.5684 93.8814 15.7771C93.8814 14.5461 93.5517 13.6448 92.8922 13.0733C92.2328 12.4797 91.1447 12.183 89.6279 12.183H82.8683V29.494Z" fill="white"/>
<path d="M108.676 32.4946C107.358 32.4946 106.181 32.2748 105.148 31.8351C104.115 31.3955 103.236 30.802 102.51 30.0546C101.807 29.2852 101.268 28.4059 100.895 27.4167C100.521 26.4275 100.334 25.3614 100.334 24.2183C100.334 22.7015 100.686 21.3496 101.389 20.1625C102.093 18.9755 103.06 18.0413 104.291 17.3598C105.544 16.6564 106.973 16.3047 108.578 16.3047C109.677 16.3047 110.655 16.4805 111.512 16.8322C112.391 17.162 113.139 17.6126 113.754 18.1841C114.37 18.7557 114.842 19.3932 115.172 20.0966C115.502 20.8 115.667 21.5035 115.667 22.2069C115.667 23.328 115.403 24.1194 114.875 24.581C114.348 25.0206 113.699 25.2405 112.93 25.2405H103.401C103.379 26.2077 103.632 27.043 104.159 27.7464C104.709 28.4279 105.39 28.9555 106.203 29.3292C107.039 29.7029 107.874 29.8897 108.709 29.8897C109.325 29.8897 109.853 29.8567 110.292 29.7908C110.732 29.7248 111.116 29.6369 111.446 29.527C111.776 29.4171 112.062 29.3072 112.304 29.1973C112.545 29.0873 112.754 28.9774 112.93 28.8675C113.128 28.7576 113.315 28.6807 113.491 28.6367C113.688 28.5927 113.875 28.6147 114.051 28.7027C114.249 28.7686 114.403 28.9115 114.513 29.1313C114.645 29.3072 114.733 29.472 114.777 29.6259C114.82 29.7798 114.842 29.9447 114.842 30.1205C114.842 30.4283 114.579 30.769 114.051 31.1427C113.524 31.5164 112.787 31.8351 111.842 32.0989C110.919 32.3627 109.863 32.4946 108.676 32.4946ZM103.401 23.295H111.677C112.095 23.295 112.402 23.2401 112.6 23.1302C112.82 23.0202 112.93 22.7235 112.93 22.2399C112.93 21.6244 112.743 21.0748 112.369 20.5912C111.996 20.0856 111.479 19.6789 110.82 19.3712C110.182 19.0634 109.446 18.9096 108.611 18.9096C107.643 18.9096 106.753 19.1074 105.94 19.5031C105.148 19.8768 104.522 20.3934 104.06 21.0528C103.599 21.7123 103.379 22.4597 103.401 23.295ZM126.483 32.4946C125.164 32.4946 123.988 32.2748 122.955 31.8351C121.922 31.3955 121.043 30.802 120.317 30.0546C119.614 29.2852 119.075 28.4059 118.702 27.4167C118.328 26.4275 118.141 25.3614 118.141 24.2183C118.141 22.7015 118.493 21.3496 119.196 20.1625C119.9 18.9755 120.867 18.0413 122.098 17.3598C123.351 16.6564 124.78 16.3047 126.384 16.3047C127.484 16.3047 128.462 16.4805 129.319 16.8322C130.198 17.162 130.946 17.6126 131.561 18.1841C132.177 18.7557 132.649 19.3932 132.979 20.0966C133.309 20.8 133.474 21.5035 133.474 22.2069C133.474 23.328 133.21 24.1194 132.682 24.581C132.155 25.0206 131.506 25.2405 130.737 25.2405H121.208C121.186 26.2077 121.438 27.043 121.966 27.7464C122.516 28.4279 123.197 28.9555 124.01 29.3292C124.846 29.7029 125.681 29.8897 126.516 29.8897C127.132 29.8897 127.659 29.8567 128.099 29.7908C128.539 29.7248 128.923 29.6369 129.253 29.527C129.583 29.4171 129.869 29.3072 130.11 29.1973C130.352 29.0873 130.561 28.9774 130.737 28.8675C130.935 28.7576 131.122 28.6807 131.297 28.6367C131.495 28.5927 131.682 28.6147 131.858 28.7027C132.056 28.7686 132.21 28.9115 132.32 29.1313C132.452 29.3072 132.539 29.472 132.583 29.6259C132.627 29.7798 132.649 29.9447 132.649 30.1205C132.649 30.4283 132.386 30.769 131.858 31.1427C131.33 31.5164 130.594 31.8351 129.649 32.0989C128.726 32.3627 127.67 32.4946 126.483 32.4946ZM121.208 23.295H129.484C129.902 23.295 130.209 23.2401 130.407 23.1302C130.627 23.0202 130.737 22.7235 130.737 22.2399C130.737 21.6244 130.55 21.0748 130.176 20.5912C129.803 20.0856 129.286 19.6789 128.627 19.3712C127.989 19.0634 127.253 18.9096 126.417 18.9096C125.45 18.9096 124.56 19.1074 123.747 19.5031C122.955 19.8768 122.329 20.3934 121.867 21.0528C121.405 21.7123 121.186 22.4597 121.208 23.295Z" fill="#FFC50A"/>
<path d="M21.5727 43.1982H21.1612V39.3149H21.5727V43.1982ZM22.6765 43.1982H22.265V40.335H22.6359V41.2334H22.6649C22.7634 40.7466 23.1691 40.2771 23.882 40.2771C24.6877 40.2771 25.0876 40.8509 25.0876 41.529V43.1982H24.6761V41.587C24.6761 40.9958 24.3921 40.6538 23.7371 40.6538C23.0416 40.6538 22.6765 41.0769 22.6765 41.813V43.1982ZM27.1599 43.2562C26.2267 43.2562 25.6066 42.636 25.6066 41.7666C25.6066 40.8972 26.2267 40.2771 27.1599 40.2771C28.0988 40.2771 28.719 40.8972 28.719 41.7666C28.719 42.636 28.0988 43.2562 27.1599 43.2562ZM27.1599 42.8853C27.9481 42.8853 28.3133 42.4622 28.3133 41.7666C28.3133 41.0769 27.9481 40.648 27.1599 40.648C26.3716 40.648 26.0123 41.0769 26.0123 41.7666C26.0123 42.4622 26.3716 42.8853 27.1599 42.8853ZM30.8488 43.1982H30.3446L28.9767 40.335H29.423L30.5822 42.7925H30.617L31.7704 40.335H32.2167L30.8488 43.1982ZM33.417 43.2562C32.8548 43.2562 32.4723 42.9896 32.4723 42.5259C32.4723 42.0564 32.8606 41.8536 33.3938 41.7956L34.7559 41.6449V41.4247C34.7559 40.8683 34.5125 40.648 33.8865 40.648C33.2721 40.648 32.9475 40.8683 32.9475 41.3725V41.3957H32.536V41.3725C32.536 40.7697 33.0345 40.2771 33.9155 40.2771C34.7849 40.2771 35.1558 40.7755 35.1558 41.4073V43.1982H34.7849V42.4274H34.7559C34.5878 42.9548 34.0836 43.2562 33.417 43.2562ZM32.8838 42.4969C32.8838 42.7867 33.0751 42.9374 33.5098 42.9374C34.2053 42.9374 34.7559 42.6302 34.7559 41.9405V41.9173L33.5213 42.0564C33.0924 42.097 32.8838 42.2013 32.8838 42.4969ZM37.5884 43.1982H36.9683C36.4003 43.1982 36.0351 42.9606 36.0351 42.2883V40.6886H35.5251V40.335H36.0351V39.6511H36.4524V40.335H37.5884V40.6886H36.4524V42.3115C36.4524 42.7114 36.6495 42.8215 37.0668 42.8215H37.5884V43.1982ZM39.4018 43.2562C38.4802 43.2562 37.8948 42.6766 37.8948 41.7666C37.8948 40.8972 38.4744 40.2771 39.396 40.2771C40.2364 40.2771 40.8334 40.7639 40.8334 41.6159C40.8334 41.7203 40.8218 41.8072 40.8044 41.8826H38.2831C38.3063 42.5259 38.6367 42.9142 39.396 42.9142C40.0683 42.9142 40.3813 42.665 40.3813 42.2477V42.2071H40.7928V42.2477C40.7928 42.8447 40.2016 43.2562 39.4018 43.2562ZM39.3902 40.619C38.6483 40.619 38.3121 41.0016 38.2831 41.6275H40.445C40.445 41.5986 40.445 41.5696 40.445 41.5406C40.445 40.9378 40.0625 40.619 39.3902 40.619ZM45.3934 43.1982H42.4433V39.3149H45.3934V39.6917H42.8548V41.0595H45.3065V41.4305H42.8548V42.8215H45.3934V43.1982ZM47.5518 43.1982H47.0476L45.6797 40.335H46.126L47.2852 42.7925H47.32L48.4734 40.335H48.9197L47.5518 43.1982ZM50.7286 43.2562C49.7954 43.2562 49.1753 42.636 49.1753 41.7666C49.1753 40.8972 49.7954 40.2771 50.7286 40.2771C51.6675 40.2771 52.2877 40.8972 52.2877 41.7666C52.2877 42.636 51.6675 43.2562 50.7286 43.2562ZM50.7286 42.8853C51.5168 42.8853 51.882 42.4622 51.882 41.7666C51.882 41.0769 51.5168 40.648 50.7286 40.648C49.9403 40.648 49.581 41.0769 49.581 41.7666C49.581 42.4622 49.9403 42.8853 50.7286 42.8853ZM53.2468 43.1982H52.8352V39.3149H53.2468V43.1982ZM55.5213 43.1982H55.017L53.6492 40.335H54.0955L55.2547 42.7925H55.2894L56.4428 40.335H56.8891L55.5213 43.1982ZM58.6575 43.2562C57.7359 43.2562 57.1505 42.6766 57.1505 41.7666C57.1505 40.8972 57.7301 40.2771 58.6517 40.2771C59.4921 40.2771 60.0891 40.7639 60.0891 41.6159C60.0891 41.7203 60.0775 41.8072 60.0601 41.8826H57.5389C57.562 42.5259 57.8924 42.9142 58.6517 42.9142C59.324 42.9142 59.637 42.665 59.637 42.2477V42.2071H60.0485V42.2477C60.0485 42.8447 59.4573 43.2562 58.6575 43.2562ZM58.6459 40.619C57.904 40.619 57.5678 41.0016 57.5389 41.6275H59.7007C59.7007 41.5986 59.7007 41.5696 59.7007 41.5406C59.7007 40.9378 59.3182 40.619 58.6459 40.619ZM62.1105 43.1982H61.699V39.3149H62.2612L63.5653 41.8478L63.9073 42.5665H63.9362L64.2724 41.8478L65.5707 39.3149H66.1387V43.1982H65.7272V40.4625L65.7388 39.9409H65.704L65.4606 40.4625L64.1681 42.9664H63.6696L62.3771 40.4625L62.1279 39.9409H62.0989L62.1105 40.4625V43.1982ZM67.6211 43.2562C67.0589 43.2562 66.6764 42.9896 66.6764 42.5259C66.6764 42.0564 67.0647 41.8536 67.5979 41.7956L68.96 41.6449V41.4247C68.96 40.8683 68.7165 40.648 68.0906 40.648C67.4762 40.648 67.1516 40.8683 67.1516 41.3725V41.3957H66.7401V41.3725C66.7401 40.7697 67.2386 40.2771 68.1196 40.2771C68.9889 40.2771 69.3599 40.7755 69.3599 41.4073V43.1982H68.9889V42.4274H68.96C68.7919 42.9548 68.2876 43.2562 67.6211 43.2562ZM67.0879 42.4969C67.0879 42.7867 67.2791 42.9374 67.7138 42.9374C68.4094 42.9374 68.96 42.6302 68.96 41.9405V41.9173L67.7254 42.0564C67.2965 42.097 67.0879 42.2013 67.0879 42.4969ZM70.4479 43.1982H70.0363V39.3149H70.4479V41.5348H71.41L72.3663 40.335H72.8532L71.7461 41.7029L72.8474 43.1982H72.3663L71.4042 41.9115H70.4479V43.1982ZM74.6133 43.2562C73.6918 43.2562 73.1064 42.6766 73.1064 41.7666C73.1064 40.8972 73.686 40.2771 74.6075 40.2771C75.448 40.2771 76.0449 40.7639 76.0449 41.6159C76.0449 41.7203 76.0333 41.8072 76.016 41.8826H73.4947C73.5179 42.5259 73.8483 42.9142 74.6075 42.9142C75.2799 42.9142 75.5929 42.665 75.5929 42.2477V42.2071H76.0044V42.2477C76.0044 42.8447 75.4132 43.2562 74.6133 43.2562ZM74.6017 40.619C73.8599 40.619 73.5237 41.0016 73.4947 41.6275H75.6566C75.6566 41.5986 75.6566 41.5696 75.6566 41.5406C75.6566 40.9378 75.2741 40.619 74.6017 40.619ZM78.0664 43.1982H77.6549V39.3149H78.0664V43.1982ZM82.0851 39.9699H81.6735V39.3149H82.0851V39.9699ZM82.0851 43.1982H81.6735V40.335H82.0851V43.1982ZM84.035 43.2562C83.154 43.2562 82.644 42.9026 82.644 42.2419V42.2303H83.0555V42.2651C83.0555 42.7462 83.3395 42.9142 84.0408 42.9142C84.6841 42.9142 84.9044 42.7635 84.9044 42.4332C84.9044 42.1318 84.7247 42.0333 84.2494 41.9579L83.4844 41.8478C82.9627 41.7782 82.6324 41.5754 82.6324 41.1001C82.6324 40.5959 83.1134 40.2771 83.9017 40.2771C84.7247 40.2771 85.2579 40.6248 85.2579 41.2972V41.3088H84.8464V41.2798C84.8464 40.8509 84.6204 40.619 83.8901 40.619C83.2873 40.619 83.0381 40.7639 83.0381 41.1059C83.0381 41.4015 83.1888 41.5058 83.664 41.5754L84.3654 41.6739C84.9797 41.7608 85.3101 41.9695 85.3101 42.4332C85.3101 42.9722 84.7769 43.2562 84.035 43.2562ZM87.6069 43.1982H86.9867C86.4187 43.1982 86.0536 42.9606 86.0536 42.2883V40.6886H85.5435V40.335H86.0536V39.6511H86.4709V40.335H87.6069V40.6886H86.4709V42.3115C86.4709 42.7114 86.6679 42.8215 87.0852 42.8215H87.6069V43.1982ZM89.4608 43.2562C88.5276 43.2562 87.9075 42.636 87.9075 41.7666C87.9075 40.8972 88.5276 40.2771 89.4608 40.2771C90.3997 40.2771 91.0199 40.8972 91.0199 41.7666C91.0199 42.636 90.3997 43.2562 89.4608 43.2562ZM89.4608 42.8853C90.249 42.8853 90.6142 42.4622 90.6142 41.7666C90.6142 41.0769 90.249 40.648 89.4608 40.648C88.6725 40.648 88.3132 41.0769 88.3132 41.7666C88.3132 42.4622 88.6725 42.8853 89.4608 42.8853ZM91.9789 43.1982H91.5674V40.335H91.9384V41.1175H91.9673C92.0543 40.6596 92.3789 40.2771 92.9758 40.2771C93.6366 40.2771 93.9264 40.7639 93.9264 41.2972V41.5812H93.5149V41.3609C93.5149 40.8741 93.312 40.6364 92.8136 40.6364C92.234 40.6364 91.9789 41.0016 91.9789 41.6449V43.1982ZM94.7799 44.1836H94.4205V43.8068H94.8552C95.145 43.8068 95.2552 43.7199 95.3653 43.4822L95.5044 43.1924L94.0844 40.335H94.5365L95.3769 42.0391L95.6956 42.7404H95.7304L96.0376 42.0333L96.8317 40.335H97.2837L95.7304 43.5982C95.5218 44.0387 95.2552 44.1836 94.7799 44.1836Z" fill="white"/>
<path d="M13.7346 40.5923H2.96901C2.09325 40.5923 1.3833 41.3022 1.3833 42.178C1.3833 43.0538 2.09325 43.7637 2.96901 43.7637H13.7346C14.6103 43.7637 15.3203 43.0538 15.3203 42.178C15.3203 41.3022 14.6103 40.5923 13.7346 40.5923Z" fill="#FFC50A"/>
<mask id="mask0_148_269" style="mask-type:luminance" maskUnits="userSpaceOnUse" x="107" y="30" width="21" height="23">
<path d="M117.311 30.3999C117.311 30.3999 114.161 38.051 107.072 38.051C107.072 38.051 107.729 48.002 117.311 52.1307C119.922 50.7207 122.178 48.7343 123.906 46.3222C125.635 43.9102 126.791 41.136 127.287 38.2103C127.287 38.2103 120.79 38.9979 117.311 30.3999Z" fill="white"/>
</mask>
<g mask="url(#mask0_148_269)">
<path d="M128.41 37.1717C127.694 35.7743 126.716 34.5275 125.53 33.4988C120.024 34.663 114.336 34.663 108.83 33.4988C107.644 34.5275 106.666 35.7743 105.95 37.1717C113.277 39.3582 121.083 39.3582 128.41 37.1717Z" fill="white"/>
<path d="M125.529 33.4988C123.207 31.4995 120.244 30.3999 117.18 30.3999C114.115 30.3999 111.153 31.4995 108.83 33.4988C114.336 34.663 120.024 34.663 125.529 33.4988Z" fill="white"/>
<path d="M117.18 38.8117C113.375 38.8385 109.589 38.2856 105.95 37.1719C105.307 38.429 104.894 39.791 104.73 41.1935C112.803 43.9374 121.557 43.9374 129.63 41.1935C129.466 39.791 129.053 38.429 128.41 37.1719C124.772 38.2856 120.985 38.8385 117.18 38.8117Z" fill="#FFC50A"/>
<path d="M104.73 41.1936C104.55 42.7242 104.67 44.2752 105.082 45.7603C112.942 48.3348 121.418 48.3348 129.278 45.7603C129.69 44.2752 129.81 42.7242 129.629 41.1936C121.557 43.9375 112.803 43.9375 104.73 41.1936Z" fill="white"/>
<path d="M105.082 45.76C105.652 47.7958 106.746 49.6463 108.255 51.127C114.13 52.4651 120.23 52.4651 126.105 51.127C127.614 49.6463 128.708 47.7958 129.278 45.76C121.418 48.3345 112.942 48.3345 105.082 45.76Z" fill="#FFC50A"/>
</g>
<path d="M127.986 2.54224C123.41 -1.1208 119.723 5.07576 118.608 7.27471C117.64 7.08872 116.646 7.08872 115.679 7.27471C114.563 5.07573 110.877 -1.1208 106.3 2.54224C106.022 2.57395 105.764 2.70255 105.571 2.90552C105.378 3.10849 105.262 3.3729 105.245 3.65244C105.227 3.93197 105.308 4.20882 105.474 4.4345C105.64 4.66018 105.88 4.8203 106.152 4.88682C106.424 4.95335 106.711 4.92203 106.962 4.79836C107.214 4.6747 107.413 4.46656 107.527 4.2104C107.64 3.95424 107.659 3.66638 107.582 3.39725C107.504 3.12811 107.335 2.89485 107.102 2.73831C108.362 1.83896 111.041 1.20246 114.445 7.63152C112.746 8.30305 111.596 9.58832 111.596 11.0644C111.578 11.3868 111.647 11.7082 111.798 11.994C111.948 12.2798 112.174 12.5191 112.45 12.6863C113.834 11.744 115.469 11.2401 117.143 11.2401C118.817 11.2401 120.453 11.744 121.837 12.6863C122.113 12.5191 122.339 12.2798 122.489 11.994C122.639 11.7082 122.709 11.3868 122.69 11.0644C122.69 9.58832 121.541 8.30305 119.842 7.63152C123.245 1.20246 125.924 1.83896 127.184 2.73831C126.952 2.89497 126.782 3.1285 126.704 3.398C126.626 3.6675 126.645 3.95578 126.759 4.21234C126.872 4.4689 127.072 4.67738 127.324 4.80126C127.576 4.92514 127.863 4.95651 128.135 4.88989C128.408 4.82327 128.648 4.6629 128.814 4.43688C128.98 4.21085 129.062 3.93358 129.044 3.65364C129.026 3.3737 128.91 3.10894 128.717 2.90574C128.524 2.70254 128.265 2.57386 127.986 2.54224Z" fill="white"/>
<path d="M117.292 15.8858C119.229 15.8858 120.8 15.1347 120.8 14.2081C120.8 13.2814 119.229 12.5303 117.292 12.5303C115.354 12.5303 113.784 13.2814 113.784 14.2081C113.784 15.1347 115.354 15.8858 117.292 15.8858Z" fill="white"/>
</svg>
